:SAMPLES-PER-SECOND 30
:FRAME-RANGE 1-564
:FULLY-SPECIFIED
:DEGREES
388
root  9.92007 33.8541 -95.2435 -162.556 -16.9624 -173.398
RightUpLeg  -58.2143 -0.389954 -2.08798
RightLeg  49.6221 0.217557 -0.0710344
RightFoot  -12.922 -0.049494 2.76065
RightToes  1.21801e-010 1.2921e-014 -6.02303e-014
Spine  26.014 -0.827086 4.23872
Spine1  14.313 2.54026 -3.9823
HEad  -0.442082 -1.43445 1.33514
LeftShoulder1  3.22692 -15.2331 -10.3417
LeftArm  -21.5882 -51.1088 -31.379
LeftForeArm  -5.81371 -5.91108 -7.18892
LeftHand  0.205054 -0.450133 -4.08551
RightShoulder  2.54441 10.1252 11.9757
RightArm  -27.0523 61.0167 49.4863
RightForeArm  17.6686 2.47941 -2.32817
RightHand  -0.339903 2.27183 -5.34372
LeftUpLeg  -60.5136 5.09271 1.5956
LeftLeg  52.3052 2.47594 3.93394
LeftFoot  -8.48153 -0.0565245 4.30847
LeftToes  1.70735e-010 3.74918e-011 3.68705e-011
389
root  9.92226 32.973 -95.6817 -162.116 -16.764 -173.222
RightUpLeg  -61.1698 -0.508096 -1.55002
RightLeg  53.7161 0.162303 -0.154345
RightFoot  -9.40791 -0.055234 -0.502882
RightToes  1.21801e-010 1.2921e-014 -6.02303e-014
Spine  25.6514 -0.489844 4.56146
Spine1  17.8735 2.7344 -3.19671
HEad  -4.03553 -2.00747 0.987923
LeftShoulder1  3.46628 -16.2893 -10.6474
LeftArm  -24.2095 -52.313 -29.472
LeftForeArm  -5.85889 -5.84749 -6.55012
LeftHand  0.208409 -0.597785 -4.11572
RightShoulder  2.46926 10.0989 11.3936
RightArm  -28.6066 62.4834 47.162
RightForeArm  16.0049 2.84202 -2.61507
RightHand  -0.358311 2.11722 -5.72654
LeftUpLeg  -63.5512 5.19975 2.02967
LeftLeg  58.254 2.18362 4.38398
LeftFoot  -11.7759 0.084569 3.62916
LeftToes  1.70735e-010 3.74918e-011 3.68705e-011
390
root  10.0155 31.704 -96.1929 -161.231 -17.0466 -174.268
RightUpLeg  -64.6102 -1.01255 -3.20287
RightLeg  60.5925 0.532155 0.52467
RightFoot  -13.3153 0.0502059 8.15534
RightToes  1.21801e-010 1.2921e-014 -6.02303e-014
Spine  24.3405 -0.343906 3.42224
Spine1  21.4835 2.78039 -2.43878
HEad  -7.37399 -2.76323 0.639746
LeftShoulder1  3.72079 -17.3774 -10.9696
LeftArm  -26.5553 -53.4771 -27.9815
LeftForeArm  -5.98827 -5.84575 -5.95596
LeftHand  0.209606 -0.59997 -4.0257
RightShoulder  2.33685 9.87747 10.6182
RightArm  -30.5735 63.5978 44.935
RightForeArm  15.1538 3.15047 -3.12829
RightHand  -0.378273 2.30858 -5.8994
LeftUpLeg  -67.5678 4.51765 1.52046
LeftLeg  65.6052 1.723 4.91642
LeftFoot  -15.2937 0.184085 2.67279
LeftToes  1.70735e-010 3.74918e-011 3.68705e-011
391
root  10.1131 30.3813 -96.6641 -160.275 -17.532 -175.796
RightUpLeg  -69.2698 -2.55643 -4.14317
RightLeg  69.0423 0.652679 1.1418
RightFoot  -16.5648 0.158417 5.9319
RightToes  1.21801e-010 1.2921e-014 -6.02303e-014
Spine  23.1148 0.00154829 2.30991
Spine1  24.8497 2.59658 -1.09379
HEad  -10.301 -4.13975 0.186663
LeftShoulder1  4.15234 -19.0319 -11.6148
LeftArm  -28.9353 -54.4445 -26.1885
LeftForeArm  -5.55504 -6.14749 -5.45394
LeftHand  0.208513 -0.687951 -3.93629
RightShoulder  2.15708 9.58326 9.51025
RightArm  -33 63.9923 41.8894
RightForeArm  13.8474 3.70368 -3.45104
RightHand  -0.387763 2.33868 -6.02113
LeftUpLeg  -71.2562 3.45127 0.621267
LeftLeg  72.3452 1.23349 5.44023
LeftFoot  -18.7024 0.219813 1.67186
LeftToes  1.70735e-010 3.74918e-011 3.68705e-011
392
root  10.2073 29.0519 -97.1294 -159.959 -17.805 -176.772
RightUpLeg  -72.7707 -2.83012 -5.07748
RightLeg  76.5163 0.495594 1.12509
RightFoot  -19.8262 0.465602 8.08006
RightToes  1.21801e-010 1.2921e-014 -6.02303e-014
Spine  22.077 0.566229 1.78768
Spine1  28.3299 2.52723 0.572979
HEad  -13.3017 -5.98044 -0.576131
LeftShoulder1  4.7435 -20.7437 -12.8437
LeftArm  -31.5458 -55.7253 -24.4243
LeftForeArm  -4.79676 -6.36867 -4.89034
LeftHand  0.195933 -0.554217 -3.79351
RightShoulder  2.00055 9.34621 8.47336
RightArm  -35.928 64.1389 37.6904
RightForeArm  12.825 4.09417 -3.63275
RightHand  -0.392805 2.29901 -6.12531
LeftUpLeg  -74.2611 3.21501 0.0498921
LeftLeg  78.8676 0.600393 5.5151
LeftFoot  -22.2759 0.270666 1.43012
LeftToes  1.70735e-010 3.74918e-011 3.68705e-011
393
root  10.326 27.713 -97.5763 -159.843 -18.2116 -177.438
RightUpLeg  -75.8723 -2.86606 -5.83409
RightLeg  83.4825 0.339202 0.772813
RightFoot  -23.3077 0.713774 8.30904
RightToes  1.21801e-010 1.2921e-014 -6.02303e-014
Spine  21.1828 1.35849 1.53506
Spine1  31.2192 2.31848 2.91508
HEad  -15.1099 -8.15971 -1.50271
LeftShoulder1  5.47727 -22.8063 -14.1842
LeftArm  -33.7341 -56.6566 -23.7852
LeftForeArm  -4.3704 -6.62598 -4.23102
LeftHand  0.194162 -0.660652 -3.68033
RightShoulder  1.78425 8.91367 7.10861
RightArm  -38.6802 63.7085 34.2268
RightForeArm  11.6903 4.36349 -4.00766
RightHand  -0.408464 2.40254 -6.28463
LeftUpLeg  -77.328 3.16762 -0.263586
LeftLeg  85.311 -0.043147 5.16716
LeftFoot  -25.1582 0.219653 0.565009
LeftToes  1.70735e-010 3.74918e-011 3.68705e-011
394
root  10.4805 26.4101 -98.0065 -159.523 -19.0459 -178.946
RightUpLeg  -78.4332 -3.51119 -7.3878
RightLeg  89.9706 0.268175 0.719015
RightFoot  -27.0616 1.03278 8.80042
RightToes  1.21801e-010 1.2921e-014 -6.02303e-014
Spine  20.2399 2.87389 0.463519
Spine1  33.9875 1.39562 7.61627
HEad  -17.033 -11.7333 -3.47977
LeftShoulder1  6.80251 -25.6091 -16.9011
LeftArm  -35.444 -58.2894 -22.9347
LeftForeArm  -3.33403 -6.56443 -3.85279
LeftHand  0.194686 -0.924456 -3.50734
RightShoulder  1.33326 7.73968 4.23384
RightArm  -41.8641 62.4182 29.9539
RightForeArm  10.177 4.55951 -4.37208
RightHand  -0.41386 2.3062 -6.43746
LeftUpLeg  -80.0749 2.43882 -1.05495
LeftLeg  91.1538 -0.535066 4.47084
LeftFoot  -27.4067 0.0936847 -0.504238
LeftToes  1.70735e-010 3.74918e-011 3.68705e-011
395
root  10.6231 25.1675 -98.4259 -159.61 -19.7693 -179.712
RightUpLeg  -80.6383 -3.75346 -8.16058
RightLeg  95.9954 0.251539 0.421251
RightFoot  -30.0815 1.31079 9.17
RightToes  1.21801e-010 1.2921e-014 -6.02303e-014
Spine  19.5814 4.63839 0.182065
Spine1  36.3179 0.3556 12.9543
HEad  -19.0093 -15.7013 -5.80201
LeftShoulder1  8.33403 -28.2547 -19.9265
LeftArm  -37.1353 -60.2681 -23.1321
LeftForeArm  -1.62903 -6.72904 -3.3389
LeftHand  0.183476 -0.723623 -3.43123
RightShoulder  0.854028 6.30643 0.582521
RightArm  -44.7259 60.4226 25.9721
RightForeArm  8.66454 5.04917 -4.63914
RightHand  -0.414016 2.37375 -6.38876
LeftUpLeg  -82.3211 1.97335 -0.967288
LeftLeg  96.5818 -0.884372 3.91345
LeftFoot  -29.8808 -0.0207731 -1.22994
LeftToes  1.70735e-010 3.74918e-011 3.68705e-011
